<svg id="Layer_1" data-name="Layer 1" xmlns="http://www.w3.org/2000/svg" viewBox="0 0 3000 258.31"><defs><style>.cls-1{fill:#262626;}</style></defs><title>oneLineLogo</title><path class="cls-1" d="M1343.67,2.37c-44.54,0-76.36,25.79-76.36,70V188.3c0,44.21,31.82,70,76.36,70s76.73-25.8,76.73-70V72.38C1420.4,28.16,1388.24,2.37,1343.67,2.37Zm30.5,178.57c0,23.11-11.72,35.17-30.5,35.17-18.41,0-30.13-12.06-30.13-35.17V79.76c0-23.14,11.72-35.2,30.13-35.2,18.78,0,30.5,12.06,30.5,35.2Z"/><path class="cls-1" d="M1157.74,2.37c-44.54,0-76.38,25.79-76.38,69.34V189c0,43.54,31.84,69.34,76.38,69.34s76.73-25.8,76.73-69.34V172.55a4.76,4.76,0,0,0-5-5h-36.2c-3.33,0-5,2-5,5v9.06c0,22.44-12.06,34.5-30.5,34.5s-30.14-12.06-30.14-34.5V79.09c0-22.47,11.73-34.53,30.14-34.53s30.5,12.06,30.5,34.53v9c0,3,1.68,5,5,5h36.2a4.75,4.75,0,0,0,5-5V71.71C1234.47,28.16,1202.31,2.37,1157.74,2.37Z"/><path class="cls-1" d="M1863.59,2.37c-24.37,0-49.45,16.8-56.57,44.45-4.45,17.3-4,35.8-5.55,53.5-2.84,32.45-1.5,65.8-6.21,98-1.15,7.81-5.8,14.25-14.32,14.25-13.25,0-14.14-13.6-14.91-23.74-1.41-18.37-2.46-36.76-4.07-55.13-2.19-25.19-2.8-50.83-5.66-75.89-3.78-33.34-29-55.42-58-55.42C1673,2.37,1646.85,20.6,1641,50c-3,15-3.07,30.56-4.41,45.82-1.17,13.43-2.4,26.83-3.54,40.23-1.72,20.38-1.85,40.67-3.15,61.1,0,.38,0,.78,0,1.17a14.29,14.29,0,0,1-28.57,0c-.07-.63.06-1.26,0-1.88-2.06-23.12-3.49-46.21-5.22-69.34-1.79-24-2.39-48.13-5.12-72-3.65-32-31.14-52.66-58.06-52.66-32.22,0-58.42,26.73-58.42,59.58,0,14.81-6.69,128.54-10.23,186.6a5.1,5.1,0,0,0,1.12,3.6,3.92,3.92,0,0,0,3.07,1.52h37a4.47,4.47,0,0,0,4.18-4.45c2.2-37.43,4-74.86,5.89-112.32q.93-19.37,1.66-38.73c.4-11,.31-22.08,1.29-33.09.81-8.68,4.36-17.18,14.59-17.18,11.43,0,14.1,11,14.79,20.36,2.79,37.48,4.09,75.09,7.56,112.54.58,6.33,1.19,12.66,1.79,19,.56,32.26,26.76,58.51,58.42,58.51a58.58,58.58,0,0,0,51.89-32.18c6.35-12.5,6.26-26.56,7.16-40.7,1.65-26.24,3.67-52.49,5.79-78.69,1.08-13.29,2.4-26.58,3.34-39.89.65-9.15,3.26-18.95,14.56-18.95,11.82,0,14,10.38,14.5,19.73,2.48,44.1,5.41,88.2,9.65,132.17.55,32.26,26.75,58.51,58.44,58.51A58.54,58.54,0,0,0,1832,227.63c5.79-10.63,6.13-21.77,7.07-33.76,1.14-14.41,2.28-28.82,3.51-43.23q2.14-25.57,4.49-51.15c1.15-12.35.52-25,2.29-37.29a14.29,14.29,0,1,1,28.57,0c.65,5,.23,10.58.47,15.17s.27,9.24.49,13.85c2.62,52.69,4.81,105.36,8,158a4.48,4.48,0,0,0,4.18,4.45h37a3.88,3.88,0,0,0,3.06-1.52,5.05,5.05,0,0,0,1.12-3.6c-3.53-58.17-10.2-172-10.2-186.6C1922,29.1,1895.8,2.37,1863.59,2.37Z"/><path class="cls-1" d="M2814.72,4.71h-103.5c-3.36,0-5,2-5,5V251a4.75,4.75,0,0,0,5,5h103.5a4.75,4.75,0,0,0,5-5V220.11a4.75,4.75,0,0,0-5-5h-57.61a4.75,4.75,0,0,1-5-5V154.8a4.75,4.75,0,0,1,5-5h57.61a4.76,4.76,0,0,0,5-5v-30.8a4.75,4.75,0,0,0-5-5h-57.61a4.75,4.75,0,0,1-5-5V50.6a4.75,4.75,0,0,1,5-5h57.61a4.74,4.74,0,0,0,5-5V9.73A4.74,4.74,0,0,0,2814.72,4.71Z"/><path class="cls-1" d="M2121.92,4.71h-36.18c-3.35,0-5,2-5,5V180.94c0,23.11-11.75,35.17-30.5,35.17-18.43,0-30.16-12.06-30.16-35.17V9.73a4.73,4.73,0,0,0-5-5h-36.18c-3.35,0-5,2-5,5V188.3c0,44.21,31.84,70,76.38,70s76.72-25.8,76.72-70V9.73A4.74,4.74,0,0,0,2121.92,4.71Z"/><path class="cls-1" d="M2959.12,82.08h36.18c3,0,4.7-2,4.7-5V64.34c0-36.85-31.17-62-75.38-62-44.57,0-75.71,25.12-75.71,62V77.08c0,36.85,32.48,53.27,59.62,69.33,26.14,15.42,45.89,23.45,45.89,39.87v5c0,14.07-11.72,24.79-29.8,24.79-18.77,0-29.82-11.39-29.82-26.47v-6a4.76,4.76,0,0,0-5-5h-35.84a4.74,4.74,0,0,0-5,5v12.73c0,36.85,31.14,62,75.71,62,44.21,0,75.38-25.13,75.38-62V183.6c0-36.85-33.85-54.26-60-69.67-28.13-16.43-45.22-23.12-45.22-39.54V69c0-13.72,11.38-24.46,29.82-24.46,18.08,0,29.8,11.39,29.8,27.15v5.37C2954.42,80.1,2956.1,82.08,2959.12,82.08Z"/><path class="cls-1" d="M2576.88,4.71H2459.62a4.75,4.75,0,0,0-5,5V41.57c0,3.33,2,5,5,5h30.83a4.74,4.74,0,0,1,5,5V251a4.75,4.75,0,0,0,5,5h35.85c3.35,0,5-2,5-5V51.61a4.73,4.73,0,0,1,5-5h30.5a4.74,4.74,0,0,0,5-5V9.73C2581.89,6.37,2579.88,4.71,2576.88,4.71Z"/><path class="cls-1" d="M2655.59,4.71h-35.84c-3.36,0-5,2-5,5V251a4.76,4.76,0,0,0,5,5h35.84c3.36,0,5-2,5-5V9.73A4.75,4.75,0,0,0,2655.59,4.71Z"/><path class="cls-1" d="M2417.08,4.71h-35.86c-3.34,0-5,2-5,5V251a4.75,4.75,0,0,0,5,5h35.86c3.33,0,5-2,5-5V9.73A4.74,4.74,0,0,0,2417.08,4.71Z"/><path class="cls-1" d="M2325.62,4.71h-34.51a4.74,4.74,0,0,0-5,5V147.42c0,2-2.35,2.68-3.36.67L2212,9.06c-1.67-3.36-4.36-4.35-9-4.35h-29.82a4.74,4.74,0,0,0-5,5V251a4.75,4.75,0,0,0,5,5h34.5a4.75,4.75,0,0,0,5-5V113.25c0-2,2.35-2.68,3.36-.67l71,139.37c1.68,3.36,4.69,4,8.7,4h29.83a4.75,4.75,0,0,0,5-5V9.73A4.74,4.74,0,0,0,2325.62,4.71Z"/><path class="cls-1" d="M76.41,0C31.44,0,0,25.35,0,62.53V75.4c0,37.19,32.8,53.74,60.19,70,26.37,15.55,46.31,23.67,46.31,40.23v5.08c0,14.18-11.84,25-30.09,25-18.93,0-30.09-11.5-30.09-26.71v-6.09a4.79,4.79,0,0,0-5.06-5.08H5.08A4.81,4.81,0,0,0,0,182.91v12.84C0,233,31.44,258.31,76.41,258.31c44.63,0,76.07-25.35,76.07-62.56V182.91c0-37.19-34.14-54.77-60.52-70.32C63.57,96,46.32,89.25,46.32,72.69V67.28c0-13.87,11.49-24.68,30.09-24.68C94.66,42.6,106.5,54.1,106.5,70V75.4c0,3,1.7,5.06,4.74,5.06h36.52c3,0,4.72-2,4.72-5.06V62.53C152.48,25.35,121,0,76.41,0Z"/><path class="cls-1" d="M736.07,2.35H701.26a4.8,4.8,0,0,0-5.08,5.08v139c0,2-2.37,2.71-3.38.68L621.44,6.76c-1.67-3.38-4.38-4.41-9.12-4.41h-30.1a4.78,4.78,0,0,0-5.05,5.08V250.88a4.76,4.76,0,0,0,5.05,5.06h34.84a4.79,4.79,0,0,0,5.08-5.06v-139c0-2,2.35-2.71,3.38-.7l71.66,140.67c1.7,3.38,4.75,4.05,8.8,4.05h30.09a4.79,4.79,0,0,0,5.08-5.06V7.43A4.81,4.81,0,0,0,736.07,2.35Z"/><path class="cls-1" d="M864.21,2.35H792.54c-3.38,0-5.07,2-5.07,5.08V250.88a4.78,4.78,0,0,0,5.07,5.06h71.67c45,0,77.1-26,77.1-70.66V73C941.31,28.39,909.18,2.35,864.21,2.35ZM895,177.83c0,23.34-11.83,35.51-30.78,35.51H838.52c-2.71,0-4.38-1.34-4.74-3.72V48.69a4.53,4.53,0,0,1,4.74-4.08h25.69c18.95,0,30.78,12.53,30.78,35.85Z"/><path class="cls-1" d="M266.43,0c-45,0-77.08,26-77.08,70.66v117c0,44.64,32.11,70.66,77.08,70.66s77.44-26,77.44-70.66v-117C343.87,26,311.41,0,266.43,0ZM297.2,180.2c0,23.34-11.84,35.51-30.77,35.51-18.59,0-30.43-12.17-30.43-35.51V78.11c0-23.34,11.84-35.51,30.43-35.51,18.93,0,30.77,12.17,30.77,35.51Z"/><path class="cls-1" d="M530.49,2.35H494c-3.38,0-5.06,2-5.06,5.08V180.2c0,23.34-11.83,35.51-30.78,35.51-18.6,0-30.43-12.17-30.43-35.51V7.43a4.79,4.79,0,0,0-5.06-5.08H386.14c-3.41,0-5.08,2-5.08,5.08V187.65c0,44.64,32.11,70.66,77.08,70.66s77.43-26,77.43-70.66V7.43A4.8,4.8,0,0,0,530.49,2.35Z"/></svg>